<svg width="26" height="27" viewBox="0 0 26 27" fill="none" xmlns="http://www.w3.org/2000/svg">
<g clip-path="url(#clip0_3254_21393)">
<path d="M10.5388 17.1757H15.2106V21.9577H10.5388V17.1757Z" fill="#4A607C"/>
<path d="M4.65635 11.2991H9.32814V16.0811H4.65635V11.2991Z" fill="#4A607C"/>
<path d="M10.5388 11.2991H15.2106V16.0811H10.5388V11.2991Z" fill="#4A607C"/>
<path d="M5.09771 5.45867C5.58379 5.45867 5.97989 5.06204 5.97989 4.57649V3.05011V0.882717C5.97989 0.396638 5.58326 0.000534058 5.09771 0.000534058C4.61216 0.000534058 4.21553 0.39717 4.21553 0.882717V4.5733C4.21233 5.06204 4.60897 5.45867 5.09771 5.45867Z" fill="#4A607C"/>
<path d="M20.4286 5.45867C20.9147 5.45867 21.3108 5.06204 21.3108 4.57649V0.882183C21.3108 0.396104 20.9142 0 20.4286 0C19.9431 0 19.5464 0.396636 19.5464 0.882183V4.5733C19.5464 5.06204 19.9431 5.45867 20.4286 5.45867Z" fill="#4A607C"/>
<path d="M4.65635 17.1757H9.32814V21.9577H4.65635V17.1757Z" fill="#4A607C"/>
<path d="M23.1178 3.04958H22.2739V4.5733C22.2739 5.59284 21.445 6.41859 20.4286 6.41859C19.4123 6.41859 18.5833 5.58965 18.5833 4.5733V3.04958H6.94353V4.5733C6.94353 5.59284 6.11459 6.41859 5.09824 6.41859C4.08189 6.41859 3.25295 5.58965 3.25295 4.5733V3.04958H2.4091C1.07917 3.04958 0 4.12875 0 5.45868V24.0835C0 25.4135 1.07917 26.4926 2.4091 26.4926H23.121C24.4509 26.4926 25.5301 25.4135 25.5301 24.0835V5.45868C25.5274 4.12928 24.4509 3.04958 23.1183 3.04958H23.1178ZM22.5572 22.7302C22.5572 23.2104 22.1248 23.6007 21.594 23.6007H3.93229C3.39883 23.6007 2.96918 23.2099 2.96918 22.7302V10.6671C2.96918 10.1842 3.40149 9.79346 3.93229 9.79346H21.5914C22.1248 9.79346 22.5545 10.1842 22.5545 10.6671V22.7302H22.5572Z" fill="#4A607C"/>
<path d="M16.6422 11.2991H21.314V16.0811H16.6422V11.2991Z" fill="#4A607C"/>
</g>
<defs>
<clipPath id="clip0_3254_21393">
<rect width="25.5301" height="26.4921" fill="white"/>
</clipPath>
</defs>
</svg>
