<svg width="21" height="15" viewBox="0 0 21 15" fill="none" xmlns="http://www.w3.org/2000/svg">
<path d="M19.9 2.8623C19.8387 2.77672 19.757 2.70676 19.6618 2.65839C19.5667 2.61002 19.4608 2.58466 19.3533 2.58449H15.3533C15.1765 2.58449 15.007 2.65256 14.8819 2.77372C14.7569 2.89488 14.6867 3.0592 14.6867 3.23055C14.6867 3.40189 14.7569 3.56622 14.8819 3.68738C15.007 3.80853 15.1765 3.8766 15.3533 3.8766H18.4L15.9 10.3371H6.56667L4 0.491276C3.9635 0.347932 3.87744 0.221027 3.75614 0.13169C3.63484 0.0423536 3.48562 -0.00402554 3.33333 0.000274194H0.666667C0.489856 0.000274194 0.320286 0.0683406 0.195262 0.189499C0.0702374 0.310658 0 0.474984 0 0.646329C0 0.817673 0.0702374 0.981999 0.195262 1.10316C0.320286 1.22432 0.489856 1.29238 0.666667 1.29238H2.81333L5.35333 11.1383C5.38983 11.2816 5.4759 11.4085 5.5972 11.4978C5.71849 11.5872 5.86771 11.6336 6.02 11.6293C5.93181 11.8339 5.88649 12.0535 5.88667 12.2753C5.88667 12.7328 6.0742 13.1715 6.40802 13.495C6.74183 13.8185 7.19458 14.0003 7.66667 14.0003C8.13875 14.0003 8.5915 13.8185 8.92532 13.495C9.25913 13.1715 9.44667 12.7328 9.44667 12.2753C9.44583 12.0542 9.40289 11.8352 9.32 11.6293H13.4333C13.3451 11.8339 13.2998 12.0535 13.3 12.2753C13.299 12.5351 13.3586 12.7917 13.4742 13.026C13.5899 13.2604 13.7586 13.4664 13.9679 13.6287C14.1772 13.7909 14.4217 13.9053 14.683 13.9633C14.9443 14.0212 15.2157 14.0212 15.477 13.9633C15.7383 13.9053 15.9827 13.7909 16.192 13.6287C16.4013 13.4664 16.5701 13.2604 16.6858 13.0261C16.8014 12.7917 16.861 12.5351 16.86 12.2753C16.859 12.0156 16.7975 11.7594 16.68 11.5259C16.8097 11.4566 16.9092 11.3441 16.96 11.2093L19.96 3.45667C20.0001 3.36023 20.0156 3.25584 20.0051 3.15236C19.9947 3.04888 19.9586 2.94938 19.9 2.8623Z" fill="#8A9099"/>
</svg>
