<svg width="22" height="20" viewBox="0 0 22 20" fill="none" xmlns="http://www.w3.org/2000/svg">
<path d="M1 0H9C9.55223 0 10 0.433041 10 0.784161V9.21584C10 9.64888 9.55223 10 9 10H1C0.447766 10 0 9.56696 0 9.21584V0.784161C0 0.351121 0.447766 0 1 0Z" fill="#4A607C"/>
<path d="M1 12H9C9.55223 12 10 12.5522 10 13V19C10 19.5522 9.55223 20 9 20H1C0.447766 20 0 19.4478 0 19V13C0 12.4478 0.447766 12 1 12Z" fill="#4A607C"/>
<path d="M21 20L13 20C12.4478 20 12 19.567 12 19.2158L12 10.7842C12 10.3511 12.4478 10 13 10L21 10C21.5522 10 22 10.433 22 10.7842L22 19.2158C22 19.6489 21.5522 20 21 20Z" fill="#4A607C"/>
<path d="M21 8L13 8C12.4478 8 12 7.44776 12 7L12 0.999999C12 0.447765 12.4478 -8.35083e-07 13 -7.86805e-07L21 -8.74228e-08C21.5522 -3.91449e-08 22 0.552234 22 1L22 7C22 7.55223 21.5522 8 21 8Z" fill="#4A607C"/>
</svg>
