<svg width="23" height="23" viewBox="0 0 23 23" fill="none" xmlns="http://www.w3.org/2000/svg">
<g clip-path="url(#clip0_3254_21359)">
<path d="M1.56872 8.75034C1.31145 8.75034 1.05481 8.65246 0.859031 8.45605C0.46685 8.06387 0.46685 7.42822 0.859031 7.03604L7.43638 0.459953C7.82856 0.067772 8.4642 0.067772 8.85638 0.459953C9.24857 0.852134 9.24857 1.48778 8.85638 1.87996L2.27904 8.45668C2.08326 8.65246 1.82599 8.75097 1.56935 8.75097L1.56872 8.75034Z" fill="#4A607C"/>
<path d="M8.14607 8.75035C7.88942 8.75035 7.63215 8.65246 7.43638 8.45605L0.859031 1.87934C0.46685 1.48716 0.46685 0.851508 0.859031 0.459327C1.25121 0.0671464 1.88686 0.0671464 2.27904 0.459327L8.85576 7.03604C9.24794 7.42823 9.24794 8.06387 8.85576 8.45605C8.65998 8.65183 8.40271 8.75035 8.14607 8.75035Z" fill="#4A607C"/>
<path d="M21.1633 21.7218H15.4933C14.7749 21.7218 14.1355 21.1627 14.1355 20.3639V14.6939C14.1355 13.9754 14.6945 13.336 15.4933 13.336H21.1633C21.8818 13.336 22.5212 13.8951 22.5212 14.6939V20.3639C22.4415 21.1627 21.8824 21.7218 21.1633 21.7218Z" fill="#4A607C"/>
<path d="M8.94423 17.5691C8.94423 20.0389 6.94192 22.0412 4.47212 22.0412C2.00232 22.0412 0 20.0395 0 17.5691C0 15.0986 2.00232 13.097 4.47212 13.097C6.94192 13.097 8.94423 15.0993 8.94423 17.5691Z" fill="#4A607C"/>
<path d="M18.2882 0L13.5764 8.14607H23L18.2882 0Z" fill="#4A607C"/>
</g>
<defs>
<clipPath id="clip0_3254_21359">
<rect width="23" height="22.0418" fill="white"/>
</clipPath>
</defs>
</svg>
