<svg width="23" height="26" viewBox="0 0 23 26" fill="none" xmlns="http://www.w3.org/2000/svg">
<path d="M12.5868 0L7.34986 6.33928H10.2899C10.2899 6.33928 9.15687 13.6892 0.153206 13.8423C0.153206 13.8423 11.2699 16.2923 14.6999 6.64552H17.3031L12.5868 0Z" fill="#4A607C"/>
<path d="M21.7128 9.92232H16.7517C16.5067 9.92232 16.2924 10.1368 16.2924 10.3816V25.5407C16.2924 25.7858 16.5069 26 16.7517 26H21.7128C21.9578 26 22.1721 25.7855 22.1721 25.5407L22.1723 10.3816C22.1723 10.1366 21.9886 9.9221 21.7128 9.9221V9.92232Z" fill="#4A607C"/>
<path d="M13.5667 15.3735H8.60537C8.36035 15.3735 8.1461 15.588 8.1461 15.8328V25.5407C8.1461 25.7858 8.36057 26 8.60537 26H13.5665C13.8115 26 14.0258 25.7855 14.0258 25.5407L14.026 15.8021C14.026 15.5573 13.8115 15.3734 13.5667 15.3734L13.5667 15.3735Z" fill="#4A607C"/>
<path d="M5.42062 19.4465H0.459281C0.214257 19.4465 0 19.661 0 19.9058V25.5407C0 25.7857 0.214476 26 0.459281 26H5.4204C5.66542 26 5.87968 25.7855 5.87968 25.5407L5.87989 19.9058C5.87989 19.63 5.66563 19.4463 5.42061 19.4463L5.42062 19.4465Z" fill="#4A607C"/>
</svg>
