<svg width="17" height="17" viewBox="0 0 17 17" fill="none" xmlns="http://www.w3.org/2000/svg">
<g clip-path="url(#clip0_3685_905)">
<path d="M15.0039 6.31677C14.9535 4.62439 14.2458 3.01821 13.031 1.83893C11.8161 0.659646 10.1895 3.07547e-05 8.49642 1.07543e-09C6.80329 -3.07525e-05 5.17675 0.659525 3.96182 1.83877C2.74688 3.01801 2.03913 4.62416 1.98868 6.31653C0.756963 6.58371 0.064209 7.69106 0.064209 9.44537C0.064209 11.4737 0.990267 12.6372 2.60478 12.6372C2.77688 12.6372 2.94199 12.5691 3.06404 12.4477C3.18609 12.3264 3.25517 12.1617 3.25618 11.9896L3.28863 6.51405C3.28861 5.82938 3.42351 5.15142 3.68562 4.51891C3.94774 3.8864 4.33192 3.31174 4.81622 2.82777C5.30051 2.3438 5.87543 1.96 6.50812 1.69832C7.14081 1.43664 7.81886 1.3022 8.50353 1.30268C9.1882 1.30316 9.86606 1.43855 10.4984 1.70112C11.1307 1.96369 11.7051 2.34829 12.1887 2.83294C12.6723 3.31759 13.0557 3.89279 13.3169 4.52567C13.5781 5.15854 13.7121 5.83669 13.7111 6.52136L13.7763 12.3115C13.7763 13.7392 12.3983 14.502 9.68179 14.5833C9.51964 14.319 9.27372 14.1165 8.98318 14.0081C8.69263 13.8997 8.37417 13.8916 8.0785 13.9851C7.78282 14.0786 7.52693 14.2683 7.35156 14.5241C7.17618 14.7799 7.09141 15.0869 7.11074 15.3964C7.13007 15.7059 7.25239 16.0001 7.45822 16.232C7.66405 16.464 7.94156 16.6204 8.24657 16.6764C8.55159 16.7324 8.86656 16.6847 9.14136 16.541C9.41616 16.3973 9.63498 16.1658 9.76298 15.8833C13.9038 15.7414 14.9687 14.0711 15.07 12.5573C16.2635 12.2662 16.9357 11.1679 16.9357 9.44537C16.9357 7.68804 16.2395 6.58158 15.0039 6.31677Z" fill="#3F434A"/>
</g>
<defs>
<clipPath id="clip0_3685_905">
<rect width="17" height="17" fill="white"/>
</clipPath>
</defs>
</svg>
