<svg width="14" height="17" viewBox="0 0 14 17" fill="none" xmlns="http://www.w3.org/2000/svg">
<path d="M13.7309 12.0292C13.1272 11.3399 11.9975 10.3029 11.9975 6.90625C11.9975 4.32637 10.295 2.26113 7.99937 1.75445V1.0625C7.99937 0.475801 7.55187 0 7 0C6.44813 0 6.00063 0.475801 6.00063 1.0625V1.75445C3.70501 2.26113 2.00252 4.32637 2.00252 6.90625C2.00252 10.3029 0.872831 11.3399 0.269083 12.0292C0.0815839 12.2433 -0.00154089 12.4993 2.16058e-05 12.75C0.0034591 13.2945 0.405645 13.8125 1.00314 13.8125H12.9969C13.5944 13.8125 13.9969 13.2945 14 12.75C14.0015 12.4993 13.9184 12.243 13.7309 12.0292ZM2.11033 12.2188C2.77345 11.2901 3.49845 9.75076 3.50189 6.92551C3.50189 6.91887 3.50001 6.91289 3.50001 6.90625C3.50001 4.8523 5.06688 3.1875 7 3.1875C8.93312 3.1875 10.5 4.8523 10.5 6.90625C10.5 6.91289 10.4981 6.91887 10.4981 6.92551C10.5016 9.75109 11.2265 11.2904 11.8897 12.2188H2.11033ZM7 17C8.10375 17 8.99906 16.0487 8.99906 14.875H5.00094C5.00094 16.0487 5.89625 17 7 17Z" fill="#3F434A"/>
</svg>
