<svg width="24" height="24" viewBox="0 0 24 24" fill="none" xmlns="http://www.w3.org/2000/svg">
<path d="M13.4167 11.9792H7.66667L9.67917 14.6625L10.4458 14.0875L9.58333 12.9375H13.4167V11.9792ZM14.375 11.9792V13.8958H12.1708C12.3625 14.375 12.4583 14.8542 12.4583 15.3333C12.4583 18.0167 10.35 20.125 7.66667 20.125C4.98333 20.125 2.875 18.0167 2.875 15.3333C2.875 12.65 4.98333 10.5417 7.66667 10.5417C7.95417 10.5417 8.3375 10.5417 8.625 10.6375V9.10417H11.5L11.0208 8.43333C9.96667 7.95417 8.81667 7.66667 7.66667 7.66667C3.45 7.66667 0 11.1167 0 15.3333C0 19.55 3.45 23 7.66667 23C11.8833 23 15.3333 19.55 15.3333 15.3333C15.3333 14.0875 15.0458 13.0333 14.5667 11.9792H14.375ZM12.5542 8.9125L13.4167 10.0625H9.58333V11.0208H15.3333L13.3208 8.3375L12.5542 8.9125ZM15.3333 0C11.4042 0 8.24167 2.97083 7.7625 6.70833C8.72083 6.70833 9.67917 6.9 10.6375 7.1875C10.8292 4.79167 12.8417 2.875 15.3333 2.875C18.0167 2.875 20.125 4.98333 20.125 7.66667C20.125 10.1583 18.2083 12.1708 15.8125 12.4583C16.1 13.3208 16.2917 14.2792 16.2917 15.3333C20.0292 14.8542 23 11.5958 23 7.7625C23 3.45 19.55 0 15.3333 0Z" fill="#4A607C"/>
</svg>
