<svg width="27" height="16" viewBox="0 0 27 16" fill="none" xmlns="http://www.w3.org/2000/svg">
<g clip-path="url(#clip0_2175_43436)">
<path d="M10.3481 9.62262L10.3481 6.37988L7.10541 6.37988L7.10541 9.62262L10.3481 9.62262Z" fill="#4E5370"/>
<path d="M3.86279 9.62262L3.86279 6.37988L0.620057 6.37988L0.620057 9.62262L3.86279 9.62262Z" fill="#4E5370"/>
<path d="M21.0252 6.37975L13.5913 6.37974L13.5913 9.62248L21.0252 9.62248L17.7825 12.8652L20.0767 15.1595L26.088 9.14823C26.2387 8.99765 26.3583 8.81883 26.4399 8.622C26.5215 8.42517 26.5635 8.21419 26.5635 8.00111C26.5635 7.78804 26.5215 7.57706 26.4399 7.38023C26.3583 7.1834 26.2387 7.00458 26.088 6.854L20.0767 0.842773L17.7825 3.13701L21.0252 6.37975Z" fill="#4E5370"/>
</g>
<defs>
<clipPath id="clip0_2175_43436">
<rect width="15.1351" height="26.4865" fill="white" transform="translate(26.9727 0.432617) rotate(90)"/>
</clipPath>
</defs>
</svg>
