<svg width="27" height="26" viewBox="0 0 27 26" fill="none" xmlns="http://www.w3.org/2000/svg">
<g clip-path="url(#clip0_88_23120)">
<path d="M13.0408 26C20.2675 26 26.0815 20.2042 26.0815 13C26.0815 5.79579 20.2675 0 13.0408 0C5.81396 0 0 5.79579 0 13C0 20.2042 5.81396 26 13.0408 26Z" fill="#2775CA"/>
<path d="M16.6272 15.0582C16.6272 13.1624 15.4861 12.5124 13.204 12.2416C11.5739 12.0249 11.2479 11.5916 11.2479 10.8332C11.2479 10.0747 11.7913 9.58737 12.878 9.58737C13.856 9.58737 14.3994 9.91237 14.6711 10.7249C14.7255 10.8874 14.8885 10.9957 15.0515 10.9957H15.9208C16.1381 10.9957 16.3012 10.8332 16.3012 10.6166V10.5624C16.0838 9.37066 15.1057 8.44987 13.856 8.34158V7.04158C13.856 6.82486 13.693 6.66236 13.4214 6.60815H12.6064C12.389 6.60815 12.226 6.77065 12.1716 7.04158V8.28737C10.5415 8.50408 9.5092 9.58737 9.5092 10.9416C9.5092 12.7291 10.5959 13.4332 12.878 13.7041C14.3994 13.9749 14.8885 14.2999 14.8885 15.1666C14.8885 16.0333 14.1277 16.6291 13.0954 16.6291C11.6826 16.6291 11.1935 16.0332 11.0305 15.2207C10.9763 15.0041 10.8133 14.8957 10.6503 14.8957H9.72646C9.5092 14.8957 9.34619 15.0582 9.34619 15.2749V15.3291C9.56345 16.6832 10.4329 17.6582 12.226 17.9291V19.2291C12.226 19.4457 12.389 19.6082 12.6606 19.6624H13.4756C13.693 19.6624 13.856 19.4999 13.9104 19.2291V17.9291C15.5405 17.6582 16.6272 16.5207 16.6272 15.0582Z" fill="white"/>
<path d="M10.2693 20.7458C6.03109 19.2292 3.85759 14.5167 5.43343 10.3458C6.24848 8.07077 8.04158 6.33748 10.2693 5.52498C10.4867 5.41669 10.5954 5.25419 10.5954 4.98327V4.22498C10.5954 4.00827 10.4867 3.84577 10.2693 3.79169C10.215 3.79169 10.1063 3.79169 10.0519 3.84577C4.89002 5.47077 2.06448 10.9417 3.69458 16.0875C4.67263 19.1208 7.00914 21.45 10.0519 22.425C10.2693 22.5333 10.4867 22.425 10.541 22.2083C10.5954 22.1542 10.5954 22.1 10.5954 21.9917V21.2333C10.5954 21.0708 10.4323 20.8542 10.2693 20.7458ZM16.029 3.84577C15.8117 3.73748 15.5943 3.84577 15.54 4.06248C15.4856 4.11669 15.4856 4.17077 15.4856 4.27919V5.03748C15.4856 5.25419 15.6486 5.47077 15.8117 5.57919C20.0499 7.09577 22.2234 11.8083 20.6476 15.9792C19.8325 18.2542 18.0394 19.9875 15.8117 20.8C15.5943 20.9083 15.4856 21.0708 15.4856 21.3417V22.1C15.4856 22.3167 15.5943 22.4792 15.8117 22.5333C15.866 22.5333 15.9747 22.5333 16.029 22.4792C21.191 20.8542 24.0165 15.3833 22.3864 10.2375C21.4084 7.14998 19.0175 4.82077 16.029 3.84577Z" fill="white"/>
</g>
<defs>
<clipPath id="clip0_88_23120">
<rect width="26.0815" height="26" fill="white"/>
</clipPath>
</defs>
</svg>
