<svg width="16" height="18" viewBox="0 0 16 18" fill="none" xmlns="http://www.w3.org/2000/svg">
<path fill-rule="evenodd" clip-rule="evenodd" d="M15.5 8.99984C15.5 11.1507 14.1158 13.0457 12.1292 13.729C11.8533 15.7615 10.1067 17.3332 8 17.3332C6.9825 17.3332 6.00333 16.9632 5.2425 16.2915C5.05667 16.1265 4.96083 15.8973 4.96083 15.6665C4.96083 15.4707 5.02917 15.274 5.16917 15.1148C5.475 14.7707 6.00083 14.7373 6.34667 15.0423C6.80167 15.4448 7.39 15.6665 8 15.6665C9.37833 15.6665 10.5 14.5448 10.5 13.1665L10.5 13.0832C10.5 12.6865 10.78 12.3448 11.1692 12.2665C12.7125 11.9548 13.8333 10.5815 13.8333 8.99984C13.8333 7.419 12.7125 6.04484 11.1692 5.734C10.78 5.65567 10.5 5.31317 10.5 4.9165L10.5 4.83317C10.5 3.45484 9.37833 2.33317 8 2.33317C7.39 2.33317 6.80167 2.55484 6.34667 2.95817C6.00083 3.26234 5.475 3.22984 5.16917 2.88484C4.86417 2.53984 4.89833 2.01317 5.2425 1.709C6.00333 1.0365 6.9825 0.666504 8 0.666504C10.1067 0.666504 11.8533 2.23817 12.1292 4.27067C14.1158 4.95484 15.5 6.84984 15.5 8.99984ZM8.59992 8.42084C8.91325 8.74917 8.91075 9.26834 8.58908 9.58917L6.08908 12.0892C5.76325 12.415 5.23658 12.415 4.91075 12.0892C4.74825 11.9267 4.66658 11.7133 4.66658 11.5C4.66658 11.2867 4.74825 11.0733 4.91075 10.9108L5.98825 9.83334L1.33325 9.83334C0.872416 9.83334 0.499917 9.46 0.499917 9C0.499917 8.54 0.872416 8.16667 1.33325 8.16667L6.03658 8.16667L4.98658 7.07917C4.66575 6.74834 4.67658 6.22084 5.00742 5.90084C5.33908 5.58084 5.86575 5.59 6.18575 5.92084L8.59992 8.42084Z" fill="#2F80ED"/>
</svg>
