<svg width="27" height="26" viewBox="0 0 27 26" fill="none" xmlns="http://www.w3.org/2000/svg">
<g clip-path="url(#clip0_88_23143)">
<path d="M13.0408 0C20.2435 0 26.0815 5.82075 26.0815 13C26.0815 20.1792 20.2435 26 13.0408 26C5.83802 26 0 20.1799 0 13C0 5.8201 5.839 0 13.0408 0Z" fill="#F5AC37"/>
<path d="M13.5215 13.9178H18.477C18.5826 13.9178 18.6325 13.9178 18.64 13.7796C18.6804 13.2768 18.6804 12.7716 18.64 12.2687C18.64 12.1712 18.5914 12.1306 18.4851 12.1306H8.62304C8.50111 12.1306 8.46818 12.1709 8.46818 12.285V13.7312C8.46818 13.9178 8.46818 13.9178 8.66379 13.9178H13.5215ZM18.0857 10.4403C18.0998 10.4038 18.0998 10.3634 18.0857 10.3268C18.0038 10.1476 17.9056 9.97628 17.7923 9.81497C17.6214 9.54048 17.419 9.28678 17.1892 9.05902C17.0808 8.92124 16.9546 8.7983 16.8139 8.69339C16.1083 8.09479 15.2703 7.67154 14.3688 7.45839C13.9141 7.357 13.4492 7.30793 12.9832 7.31214H8.60706C8.48513 7.31214 8.4685 7.36089 8.4685 7.46652V10.3512C8.4685 10.4728 8.4685 10.5056 8.62369 10.5056H18.029C18.029 10.5056 18.1105 10.489 18.1268 10.4406H18.0877L18.0857 10.4403ZM18.0857 15.6078C17.9473 15.5928 17.8076 15.5928 17.6691 15.6078H8.63151C8.50926 15.6078 8.4685 15.6078 8.4685 15.7703V18.59C8.4685 18.72 8.4685 18.7525 8.63151 18.7525H12.8046C13.0038 18.7677 13.2042 18.7543 13.3995 18.7125C14.0053 18.6694 14.6014 18.538 15.1688 18.3225C15.3758 18.2507 15.575 18.1582 15.7632 18.0462H15.8202C16.798 17.5399 17.5929 16.7422 18.0942 15.7641C18.0942 15.7641 18.1513 15.6412 18.0874 15.6091L18.0857 15.6078ZM6.83026 20.215V15.7218C6.83026 15.6162 6.83026 15.6003 6.69985 15.6003H4.93153C4.83372 15.6003 4.79297 15.6003 4.79297 15.4703V13.9265H6.68355C6.78918 13.9265 6.83026 13.9265 6.83026 13.7884V12.2609C6.83026 12.1634 6.83026 12.139 6.69985 12.139H4.93153C4.83372 12.139 4.79297 12.139 4.79297 12.009V10.579C4.79297 10.4897 4.79297 10.4656 4.92338 10.4656H6.6754C6.79766 10.4656 6.83026 10.4656 6.83026 10.3112V5.93252C6.83026 5.80252 6.83026 5.77002 6.99327 5.77002H13.1061C13.5492 5.78732 13.9904 5.83619 14.4265 5.91627C15.3248 6.0824 16.1877 6.40121 16.9776 6.85877C17.5006 7.16536 17.9825 7.53664 18.4121 7.96377C18.7343 8.29742 19.0261 8.65894 19.2842 9.04407C19.54 9.43463 19.7531 9.85138 19.9199 10.2872C19.9299 10.3419 19.961 10.3904 20.0065 10.4224C20.0521 10.4544 20.1085 10.4672 20.1635 10.4581H21.6221C21.8095 10.4581 21.8095 10.4581 21.8177 10.6372V11.9697C21.8177 12.0997 21.7688 12.1322 21.638 12.1322H20.5136C20.3998 12.1322 20.3669 12.1322 20.3754 12.2785C20.4197 12.7729 20.4197 13.2703 20.3754 13.7647C20.3754 13.9028 20.3754 13.9194 20.5309 13.9194H21.8177C21.8747 13.9925 21.8177 14.0656 21.8177 14.1391C21.8258 14.2335 21.8258 14.3284 21.8177 14.4228V15.4063C21.8177 15.5444 21.7772 15.5853 21.6547 15.5853H20.1155C20.0637 15.5756 20.0101 15.5863 19.966 15.615C19.9219 15.6438 19.8906 15.6885 19.8788 15.7397C19.5118 16.6908 18.9254 17.5425 18.1672 18.226C17.89 18.4751 17.5988 18.7084 17.2951 18.9247C16.9691 19.1119 16.6512 19.3066 16.3171 19.461C15.7014 19.7368 15.056 19.9411 14.3936 20.07C13.7642 20.182 13.1256 20.2337 12.4864 20.2244H6.82798V20.2163L6.83026 20.215Z" fill="#FEFEFD"/>
</g>
<defs>
<clipPath id="clip0_88_23143">
<rect width="26.0815" height="26" fill="white"/>
</clipPath>
</defs>
</svg>
