<svg width="18" height="14" viewBox="0 0 18 14" fill="none" xmlns="http://www.w3.org/2000/svg">
<path d="M9.00079 13.9999C10.8807 14.0155 12.7225 13.4506 14.2918 12.3772C15.8611 11.3038 17.087 9.77035 17.8133 7.97217C18.0604 7.34666 18.0604 6.64545 17.8133 6.01995C17.085 4.22383 15.8585 2.69265 14.2894 1.62081C12.7204 0.548964 10.8796 -0.0151987 9.00079 -5.38963e-05C7.12091 -0.0155964 5.27908 0.549296 3.70976 1.62272C2.14044 2.69614 0.914603 4.22954 0.188289 6.02772C-0.0588568 6.65323 -0.0588568 7.35444 0.188289 7.97995C0.91659 9.77606 2.14312 11.3072 3.71216 12.3791C5.2812 13.4509 7.12198 14.0151 9.00079 13.9999ZM9.00079 3.88883C9.59413 3.88883 10.1742 4.0713 10.6675 4.41315C11.1608 4.755 11.5454 5.24089 11.7724 5.80937C11.9995 6.37786 12.0589 7.0034 11.9431 7.60689C11.8274 8.21039 11.5417 8.76474 11.1221 9.19983C10.7026 9.63493 10.168 9.93123 9.58606 10.0513C9.00412 10.1713 8.40092 10.1097 7.85274 9.87424C7.30456 9.63877 6.83602 9.24001 6.50638 8.72839C6.17674 8.21677 6.00079 7.61527 6.00079 6.99995C6.00079 6.17483 6.31686 5.3835 6.87947 4.80006C7.44208 4.21661 8.20514 3.88883 9.00079 3.88883Z" fill="white"/>
</svg>
