<svg width="51" height="48" viewBox="0 0 51 48" fill="none" xmlns="http://www.w3.org/2000/svg">
<g clip-path="url(#clip0_88_23256)">
<path d="M16.2427 29.9953H10.2437V35.9944H16.2427V29.9953Z" fill="#626989"/>
<path d="M16.2427 41.9934H10.2437V47.9925H16.2427V41.9934Z" fill="#626989"/>
<path d="M10.2434 10.2426V23.9954H16.2425V10.2426L22.2415 16.2416L26.4859 11.9973L15.3651 0.876549C15.0865 0.597663 14.7557 0.376421 14.3916 0.225472C14.0274 0.0745227 13.6371 -0.00317383 13.2429 -0.00317383C12.8487 -0.00317383 12.4584 0.0745227 12.0943 0.225472C11.7302 0.376421 11.3993 0.597663 11.1208 0.876549V0.876549L0 11.9973L4.24434 16.2416L10.2434 10.2426Z" fill="#626989"/>
<path d="M40.2388 11.9981H34.2397V17.9972H40.2388V11.9981Z" fill="#626989"/>
<path d="M40.2388 0H34.2397V5.99906H40.2388V0Z" fill="#626989"/>
<path d="M40.2386 37.7491V23.9963H34.2395V37.7491L28.2404 31.7501L23.9961 35.9944L35.1169 47.1152C35.3954 47.3941 35.7262 47.6153 36.0904 47.7662C36.4545 47.9172 36.8448 47.9949 37.239 47.9949C37.6332 47.9949 38.0235 47.9172 38.3877 47.7662C38.7518 47.6153 39.0826 47.3941 39.3612 47.1152L50.482 35.9944L46.2376 31.7501L40.2386 37.7491Z" fill="#626989"/>
</g>
<defs>
<clipPath id="clip0_88_23256">
<rect width="50.4821" height="48" fill="white"/>
</clipPath>
</defs>
</svg>
