<svg width="33" height="32" viewBox="0 0 33 32" fill="none" xmlns="http://www.w3.org/2000/svg">
<ellipse cx="16.0502" cy="16" rx="16.0502" ry="16" fill="#D3E7E1"/>
<g clip-path="url(#clip0_3254_24324)">
<path fill-rule="evenodd" clip-rule="evenodd" d="M9.31883 8.08841L5.53411 16.0134C5.51971 16.0428 5.51515 16.0761 5.52109 16.1084C5.52703 16.1406 5.54317 16.1701 5.56714 16.1926L15.7887 25.9567C15.8178 25.9845 15.8564 26 15.8967 26C15.9369 26 15.9756 25.9845 16.0046 25.9567L26.2262 16.1932C26.2502 16.1707 26.2663 16.1412 26.2722 16.109C26.2782 16.0767 26.2736 16.0434 26.2592 16.014L22.4745 8.08902C22.4623 8.0624 22.4427 8.03985 22.4179 8.02407C22.3932 8.00829 22.3644 7.99993 22.3351 8.00001H9.45948C9.42998 7.99965 9.401 8.0078 9.37604 8.02348C9.35109 8.03917 9.33122 8.06171 9.31883 8.08841Z" fill="#50AF95"/>
<path fill-rule="evenodd" clip-rule="evenodd" d="M17.2097 16.8271C17.1363 16.8326 16.7572 16.8551 15.9114 16.8551C15.2388 16.8551 14.7612 16.835 14.5936 16.8271C11.994 16.7131 10.0537 16.262 10.0537 15.7219C10.0537 15.1818 11.994 14.7313 14.5936 14.6154V16.3778C14.7636 16.39 15.2504 16.4187 15.9231 16.4187C16.7303 16.4187 17.1345 16.3851 17.2073 16.3784V14.6166C19.8013 14.7319 21.7374 15.183 21.7374 15.7219C21.7374 16.2608 19.8019 16.7119 17.2073 16.8265L17.2097 16.8271ZM17.2097 14.4344V12.8573H20.8299V10.4524H10.9734V12.8573H14.593V14.4338C11.651 14.5685 9.43848 15.1495 9.43848 15.8456C9.43848 16.5418 11.651 17.1222 14.593 17.2575V22.3112H17.2091V17.2557C20.1444 17.1209 22.3532 16.5406 22.3532 15.845C22.3532 15.1495 20.1462 14.5691 17.2091 14.4338L17.2097 14.4344Z" fill="white"/>
</g>
<defs>
<clipPath id="clip0_3254_24324">
<rect width="20.7569" height="18" fill="white" transform="translate(5.51758 8)"/>
</clipPath>
</defs>
</svg>
