<svg width="14" height="14" viewBox="0 0 14 14" fill="none" xmlns="http://www.w3.org/2000/svg">
<path d="M7.00016 13.6667C3.31816 13.6667 0.333496 10.682 0.333496 7C0.333496 3.318 3.31816 0.333336 7.00016 0.333336C10.6822 0.333336 13.6668 3.318 13.6668 7C13.6668 10.682 10.6822 13.6667 7.00016 13.6667ZM7.00016 12.3333C8.41465 12.3333 9.7712 11.7714 10.7714 10.7712C11.7716 9.77104 12.3335 8.41449 12.3335 7C12.3335 5.58551 11.7716 4.22896 10.7714 3.22877C9.7712 2.22857 8.41465 1.66667 7.00016 1.66667C5.58567 1.66667 4.22912 2.22857 3.22893 3.22877C2.22873 4.22896 1.66683 5.58551 1.66683 7C1.66683 8.41449 2.22873 9.77104 3.22893 10.7712C4.22912 11.7714 5.58567 12.3333 7.00016 12.3333ZM6.3335 3.66667H7.66683V5H6.3335V3.66667ZM6.3335 6.33334H7.66683V10.3333H6.3335V6.33334Z" fill="#505881"/>
</svg>
