<svg width="16" height="16" viewBox="0 0 16 16" fill="none" xmlns="http://www.w3.org/2000/svg">
<path d="M7.2 7.2L8.8 7.2L8.8 12L7.2 12L7.2 7.2ZM7.2 4L8.8 4L8.8 5.6L7.2 5.6L7.2 4ZM8 16C9.05058 16 10.0909 15.7931 11.0615 15.391C12.0321 14.989 12.914 14.3997 13.6569 13.6569C15.1571 12.1566 16 10.1217 16 8C16 5.87827 15.1571 3.84344 13.6569 2.34315C12.914 1.60028 12.0321 1.011 11.0615 0.608964C10.0909 0.206926 9.05058 3.46136e-07 8 2.54292e-07C5.87827 6.88044e-08 3.84344 0.842854 2.34315 2.34315C0.842857 3.84344 1.83854e-06 5.87827 1.65306e-06 8C1.56121e-06 9.05057 0.206927 10.0909 0.608964 11.0615C1.011 12.0321 1.60028 12.914 2.34315 13.6569C3.08601 14.3997 3.96793 14.989 4.93853 15.391C5.90914 15.7931 6.94943 16 8 16Z" fill="#686B6F"/>
</svg>
