<svg width="80" height="80" viewBox="0 0 80 80" fill="none" xmlns="http://www.w3.org/2000/svg">
<g clip-path="url(#clip0_1_555)">
<path d="M63.9931 6.93257C63.9931 10.7611 60.8891 13.8651 57.0606 13.8651C53.232 13.8651 50.128 10.7611 50.128 6.93257C50.128 3.104 53.2343 0 57.0606 0C60.8868 0 63.9931 3.104 63.9931 6.93257V6.93257Z" fill="white"/>
<path opacity="0.9" d="M51.4765 2.82972C50.4274 2.57372 49.3714 2.35886 48.3131 2.192C45.3371 1.72114 42.3337 1.60914 39.3828 1.83314C36.432 2.05486 33.5268 2.61943 30.752 3.504C27.9748 4.38857 25.328 5.59543 22.8777 7.07657C25.52 5.97257 28.2697 5.19086 31.0491 4.74057C33.8285 4.29029 36.6331 4.17372 39.3943 4.37486C42.1554 4.576 44.8663 5.09257 47.456 5.90857C48.3657 6.19429 49.2571 6.51886 50.1348 6.87772C50.1463 5.36229 50.6445 3.96343 51.4788 2.82972H51.4765Z" fill="white"/>
<path opacity="0.6" d="M16.0068 73.0674C16.0068 69.2389 19.1108 66.1349 22.9394 66.1349C26.768 66.1349 29.872 69.2389 29.872 73.0674C29.872 76.896 26.768 80 22.9394 80C19.1108 80 16.0068 76.896 16.0068 73.0674Z" fill="white"/>
<path opacity="0.5" d="M48.9532 75.2594C46.1737 75.7097 43.3692 75.8263 40.608 75.6251C37.8469 75.424 35.136 74.9097 32.5463 74.0914C31.6366 73.8057 30.7429 73.4811 29.8674 73.1223C29.856 74.6377 29.3577 76.0366 28.5234 77.1703C29.5726 77.4263 30.6286 77.6411 31.6869 77.808C34.6629 78.2789 37.6663 78.3909 40.6172 78.1669C43.568 77.9451 46.4732 77.3806 49.248 76.496C52.0229 75.6114 54.672 74.4046 57.1223 72.9234C54.48 74.0274 51.7303 74.8091 48.9509 75.2594H48.9532Z" fill="white"/>
<path opacity="0.4" d="M73.0675 63.9931C69.2389 63.9931 66.1349 60.8891 66.1349 57.0606C66.1349 53.232 69.2389 50.128 73.0675 50.128C76.896 50.128 80 53.232 80 57.0606C80 60.8891 76.896 63.9931 73.0675 63.9931Z" fill="white"/>
<path opacity="0.3" d="M75.6252 39.3897C75.424 42.1509 74.9075 44.8617 74.0915 47.4514C73.8057 48.3611 73.4812 49.2526 73.1223 50.1303C74.6377 50.1417 76.0366 50.64 77.1703 51.4743C77.4263 50.4251 77.6412 49.3691 77.808 48.3109C78.2789 45.3349 78.3909 42.3314 78.1669 39.3783C77.9452 36.4274 77.3806 33.5223 76.496 30.7474C75.6115 27.9726 74.4046 25.3234 72.9235 22.8731C74.0275 25.5154 74.8092 28.2651 75.2595 31.0446C75.7097 33.824 75.8263 36.6286 75.6252 39.3897V39.3897Z" fill="white"/>
<path opacity="0.8" d="M13.7859 23.9655C14.3538 20.1791 11.7447 16.6492 7.9583 16.0813C4.1719 15.5134 0.642035 18.1225 0.0741265 21.9089C-0.493782 25.6953 2.11532 29.2252 5.90172 29.7931C9.68813 30.361 13.218 27.7519 13.7859 23.9655Z" fill="white"/>
<path opacity="0.7" d="M4.37487 40.608C4.57601 37.8469 5.09258 35.136 5.90858 32.5463C6.1943 31.6366 6.51887 30.7451 6.87772 29.8674C5.3623 29.856 3.96344 29.3577 2.82972 28.5234C2.57372 29.5726 2.35887 30.6286 2.19201 31.6869C1.72115 34.6629 1.60915 37.6663 1.83315 40.6194C2.05487 43.5703 2.61944 46.4754 3.50401 49.2503C4.38858 52.0251 5.59544 54.6743 7.07658 57.1246C5.97258 54.4823 5.19087 51.7326 4.74058 48.9531C4.2903 46.1737 4.17372 43.3691 4.37487 40.608V40.608Z" fill="white"/>
</g>
<defs>
<clipPath id="clip0_1_555">
<rect width="80" height="80" fill="white"/>
</clipPath>
</defs>
</svg>
