<svg width="190" height="41" viewBox="0 0 190 41" fill="none" xmlns="http://www.w3.org/2000/svg">
<path fill-rule="evenodd" clip-rule="evenodd" d="M132.734 0.672852C141.889 0.672852 148.787 5.86034 150.91 14.349H140.628C139.036 11.0478 136.118 9.36359 132.602 9.36359C126.831 9.36359 122.917 13.6753 122.917 20.6144C122.917 27.5535 126.831 31.8652 132.602 31.8652C136.184 31.8652 139.036 30.1809 140.628 26.8798H150.91C148.721 35.301 141.822 40.4885 132.734 40.4885C121.391 40.4885 113.431 32.3368 113.431 20.6817C113.431 9.02674 121.458 0.672852 132.734 0.672852ZM9.3531 8.75733H23.4823V1.14451H0V40.1518H23.4823V32.5389H9.3531V23.983H21.8902V16.6396H9.3531V8.75733ZM63.9462 40.1518V1.14451H54.5931V25.3304L38.9382 1.14451H29.5851V40.0844H38.9382V16.0333L54.5931 40.1518H63.9462ZM166.034 24.0503H180.561V40.1518H189.915V1.14451H180.561V16.4375H166.034V1.14451H156.681V40.0844H166.034V24.0503Z" fill="url(#paint0_linear_1059_36578)"/>
<g clip-path="url(#clip0_1059_36578)">
<path d="M75.4062 5.33283C77.4024 4.64666 79.4907 4.30357 81.7018 4.30357C88.8573 4.30357 95.0608 8.29587 98.5618 14.066C98.5925 14.1284 98.6539 14.1907 98.6846 14.2531C98.6846 14.2843 98.7153 14.2843 98.7153 14.3155C99.7287 16.0309 100.282 18.0583 100.282 20.2104C100.282 26.6043 95.1836 31.813 88.8573 31.813C84.9571 31.813 81.4869 29.7857 79.4293 26.6979C82.6539 32.0937 89.1644 36.1172 96.0742 36.1172C98.2854 36.1172 100.404 35.7429 102.37 35.0567C106.331 31.3763 108.788 26.0741 108.788 20.2104C108.788 9.04442 99.8823 -0.000630512 88.888 -0.000630024C83.698 -0.000629793 78.9686 2.02671 75.4062 5.33283Z" fill="url(#paint1_linear_1059_36578)"/>
<path d="M79.4293 26.6984C78.2009 24.8582 77.4638 22.6125 77.4638 20.2109C77.4638 13.817 82.5617 8.60825 88.888 8.60825C92.9725 8.60825 96.5656 10.7915 98.5617 14.0665C95.0608 8.29635 88.8573 4.30405 81.7018 4.30405C79.4907 4.30405 77.3717 4.67833 75.4062 5.33332C71.4753 9.04491 68.9878 14.316 68.9878 20.2109C68.9878 31.3768 77.8938 40.4219 88.888 40.4219C94.078 40.4219 98.8381 38.3945 102.37 35.0572C100.374 35.7434 98.2546 36.1177 96.0742 36.1177C89.1644 36.1177 82.6538 32.0942 79.4293 26.6984Z" fill="url(#paint2_linear_1059_36578)"/>
</g>
<path d="M87.9482 14.7829C88.2784 14.211 89.1038 14.211 89.434 14.7829L93.7923 22.3316C94.1225 22.9035 93.7098 23.6184 93.0494 23.6184H84.3328C83.6724 23.6184 83.2597 22.9035 83.5899 22.3316L87.9482 14.7829Z" fill="#BF20C3"/>
<defs>
<linearGradient id="paint0_linear_1059_36578" x1="185.735" y1="6.06245" x2="-18.7563" y2="41.0367" gradientUnits="userSpaceOnUse">
<stop stop-color="#DB29C1"/>
<stop offset="1" stop-color="#2F0BF3"/>
</linearGradient>
<linearGradient id="paint1_linear_1059_36578" x1="88.6121" y1="4.31863" x2="97.8719" y2="32.9985" gradientUnits="userSpaceOnUse">
<stop stop-color="#9513E0"/>
<stop offset="1" stop-color="#DC29AD"/>
</linearGradient>
<linearGradient id="paint2_linear_1059_36578" x1="91.3369" y1="34.2993" x2="78.4432" y2="10.0312" gradientUnits="userSpaceOnUse">
<stop stop-color="#7A0BF3"/>
<stop offset="1" stop-color="#DC29AD"/>
</linearGradient>
<clipPath id="clip0_1059_36578">
<rect width="40.422" height="39.8004" fill="white" transform="translate(68.9878 40.4219) rotate(-90)"/>
</clipPath>
</defs>
</svg>
