<svg width="18" height="18" viewBox="0 0 18 18" fill="none" xmlns="http://www.w3.org/2000/svg">
<path fill-rule="evenodd" clip-rule="evenodd" d="M2.7092 0H10.5674C10.8372 0.000766143 11.0957 0.108271 11.2865 0.299035C11.4773 0.489798 11.5849 0.748317 11.5857 1.01813V7.82864C12.7438 7.88747 13.7401 8.19174 13.7401 9.7458V13.2766C13.7401 15.4503 16.6899 15.2359 16.6899 13.4008V9.06003L15.4382 7.82284V5.93472L13.2824 3.77768C12.7578 3.25312 13.5552 2.45576 14.0795 2.98031L17.8192 6.72023V13.4012C17.8192 16.7209 12.6148 16.946 12.6148 13.2771V9.7458C12.6148 9.12781 12.112 8.97483 11.5874 8.94263V16.0119H12.5146C12.7169 16.0124 12.9108 16.093 13.0539 16.2361C13.197 16.3791 13.2777 16.573 13.2783 16.7754V18.0007H0V16.7747C0.000893727 16.5724 0.0817073 16.3788 0.224819 16.2359C0.36793 16.093 0.56173 16.0125 0.763959 16.0119H1.69059V1.01813C1.69148 0.748295 1.7991 0.489776 1.98995 0.29902C2.1808 0.108263 2.43937 0.000765821 2.7092 0ZM6.12063 3.22431C6.61227 2.6741 7.4486 3.4245 6.95745 3.97302L5.217 5.91245C4.72536 6.46218 3.8883 5.71348 4.38018 5.16374L6.12063 3.22431ZM8.05958 3.5724C8.55145 3.02267 9.38852 3.77114 8.89664 4.32111L7.15643 6.2603C6.66479 6.81003 5.82749 6.06157 6.31937 5.51159L8.05958 3.5724ZM3.20374 1.41802H10.0728C10.174 1.41828 10.2709 1.45854 10.3424 1.53003C10.4139 1.60151 10.4543 1.69839 10.4546 1.79952V7.42464C10.4542 7.52572 10.4138 7.62254 10.3423 7.69397C10.2708 7.7654 10.1739 7.80564 10.0728 7.80589H3.20374C3.10255 7.80563 3.0056 7.76529 2.93409 7.6937C2.86259 7.62211 2.82237 7.5251 2.82224 7.42391V1.79855C2.8225 1.69745 2.86277 1.60056 2.93426 1.52907C3.00575 1.45758 3.10264 1.41731 3.20374 1.41705V1.41802Z" fill="white"/>
</svg>
