<svg width="26" height="26" viewBox="0 0 26 26" fill="none" xmlns="http://www.w3.org/2000/svg">
<circle cx="13" cy="13" r="13" fill="#1BA27A"/>
<path d="M11.8048 12.6452V10.5251H8.9292V8.66663H16.9648V10.5512H14.0892V12.6452H11.8048Z" fill="white"/>
<path fill-rule="evenodd" clip-rule="evenodd" d="M7.69287 12.8808C7.69287 12.1741 10.0041 11.5982 12.8797 11.5982C15.7554 11.5982 18.0666 12.1741 18.0666 12.8808C18.0666 13.5875 15.7554 14.1634 12.8797 14.1634C10.0041 14.1634 7.69287 13.5875 7.69287 12.8808ZM17.6367 12.8808C17.4485 12.6191 15.8898 11.8077 12.8798 11.8077C9.8698 11.8077 8.31105 12.5929 8.12292 12.8808C8.31105 13.1426 9.8698 13.5352 12.8798 13.5352C15.9167 13.5352 17.4485 13.1426 17.6367 12.8808Z" fill="white"/>
<path d="M14.089 13.2995V11.8337C13.7128 11.8075 13.3097 11.7814 12.9065 11.7814C12.5303 11.7814 12.1809 11.7814 11.8315 11.8075V13.2734C12.154 13.2734 12.5303 13.2995 12.9065 13.2995C13.3097 13.3257 13.7128 13.3257 14.089 13.2995Z" fill="white"/>
<path d="M12.8797 14.1632C12.5034 14.1632 12.1541 14.1632 11.8047 14.137V18.0371H14.0622V14.1108C13.6859 14.137 13.2828 14.1632 12.8797 14.1632Z" fill="white"/>
</svg>
