<svg width="48" height="48" viewBox="0 0 48 48" fill="none" xmlns="http://www.w3.org/2000/svg">
<path fill-rule="evenodd" clip-rule="evenodd" d="M22.8332 30.0657V17.9347L29.3875 23.999L22.8332 30.0657ZM24.7908 13.3894C23.6288 12.3114 21.9325 12.0314 20.4718 12.673C19.0485 13.2937 18.1665 14.6214 18.1665 16.1357V31.8647C18.1665 33.379 19.0485 34.7067 20.4718 35.3274C20.9922 35.556 21.5452 35.6657 22.0888 35.6657C23.0758 35.6657 24.0442 35.304 24.7885 34.6134L33.2865 26.75C34.0588 26.036 34.4998 25.035 34.4998 23.999C34.4998 22.9654 34.0588 21.962 33.2865 21.2504L24.7908 13.3894ZM23.9998 42.6666C13.7075 42.6666 5.33317 34.2923 5.33317 24C5.33317 13.7076 13.7075 5.33329 23.9998 5.33329C34.2922 5.33329 42.6665 13.7076 42.6665 24C42.6665 34.2923 34.2922 42.6666 23.9998 42.6666ZM23.9998 0.666626C11.1338 0.666626 0.666504 11.134 0.666504 24C0.666504 36.866 11.1338 47.3333 23.9998 47.3333C36.8658 47.3333 47.3332 36.866 47.3332 24C47.3332 11.134 36.8658 0.666626 23.9998 0.666626Z" fill="white"/>
</svg>
