<svg width="33" height="32" viewBox="0 0 33 32" fill="none" xmlns="http://www.w3.org/2000/svg">
<ellipse cx="16.0502" cy="16" rx="16.0502" ry="16" fill="#F5F2EC"/>
<path d="M16.0499 6C21.5906 6 26.0813 10.4775 26.0813 16C26.0813 21.5234 21.5906 26 16.0499 26C10.5101 26 6.01855 21.5229 6.01855 16C6.01855 10.4775 10.5101 6 16.0499 6Z" fill="#F5AC37"/>
<path d="M16.4165 16.6427H20.2282C20.3095 16.6427 20.3479 16.6427 20.3537 16.5365C20.3849 16.1499 20.3849 15.7611 20.3537 15.3741C20.3537 15.2989 20.3163 15.2679 20.2346 15.2679H12.6485C12.5546 15.2679 12.5294 15.2989 12.5294 15.3867V16.4991C12.5294 16.6427 12.5294 16.6427 12.6797 16.6427H16.4165ZM19.9281 13.9678C19.9389 13.9395 19.9389 13.9084 19.9281 13.8805C19.8644 13.7424 19.789 13.6105 19.7014 13.4868C19.5696 13.2753 19.4143 13.0804 19.2374 12.9054C19.1539 12.7996 19.0573 12.7047 18.9489 12.6241C18.4063 12.1638 17.7613 11.838 17.0679 11.6742C16.718 11.5959 16.3605 11.5585 16.0021 11.5617H12.6354C12.5415 11.5617 12.5289 11.599 12.5289 11.6805V13.899C12.5289 13.9926 12.5289 14.0178 12.6481 14.0178H19.8829C19.8829 14.0178 19.9457 14.0052 19.9583 13.9678H19.9276H19.9281ZM19.9281 17.9427C19.8215 17.931 19.7141 17.931 19.6076 17.9427H12.6549C12.561 17.9427 12.5294 17.9427 12.5294 18.0678V20.2368C12.5294 20.3367 12.5294 20.3619 12.6549 20.3619H15.8649C16.0183 20.3736 16.1718 20.3628 16.3222 20.3309C16.788 20.2976 17.2462 20.1968 17.6832 20.0307C17.8421 19.9758 17.9955 19.9043 18.1405 19.8183H18.1842C18.9367 19.4282 19.548 18.8153 19.9335 18.0629C19.9335 18.0629 19.9773 17.9684 19.9281 17.9436V17.9427ZM11.2695 21.4865V21.4492V19.9929V19.4993V18.0305C11.2695 17.949 11.2695 17.9369 11.1692 17.9369H9.80868C9.7333 17.9369 9.70215 17.9369 9.70215 17.837V16.6494H11.1566C11.2379 16.6494 11.2695 16.6494 11.2695 16.5432V15.3682C11.2695 15.2931 11.2695 15.2746 11.1692 15.2746H9.80868C9.7333 15.2746 9.70215 15.2746 9.70215 15.1747V14.0749C9.70215 14.0061 9.70215 13.9876 9.80236 13.9876H11.1503C11.2442 13.9876 11.2695 13.9876 11.2695 13.8688V10.5001C11.2695 10.4002 11.2695 10.375 11.395 10.375H16.0969C16.4382 10.3885 16.7772 10.4259 17.1126 10.4875C17.8037 10.6149 18.4677 10.861 19.0749 11.2125C19.4775 11.4487 19.8482 11.734 20.1781 12.0625C20.4264 12.3195 20.6503 12.5976 20.8489 12.8937C21.0462 13.1938 21.2101 13.5147 21.3387 13.8499C21.3545 13.9372 21.4385 13.9962 21.5261 13.9813H22.6483C22.7923 13.9813 22.7923 13.9813 22.7986 14.119V15.1441C22.7986 15.244 22.7611 15.2692 22.6605 15.2692H21.7951C21.7075 15.2692 21.6823 15.2692 21.6886 15.3818C21.7229 15.7625 21.7229 16.1445 21.6886 16.5252C21.6886 16.6314 21.6886 16.644 21.8082 16.644H22.7982C22.8419 16.7003 22.7982 16.7565 22.7982 16.8132C22.8045 16.8857 22.8045 16.959 22.7982 17.0315V17.7879C22.7982 17.8941 22.767 17.9256 22.6727 17.9256H21.4877C21.4051 17.9099 21.3247 17.9625 21.3058 18.0444C21.0236 18.7757 20.5722 19.4313 19.989 19.9569C19.7759 20.1482 19.552 20.3282 19.3182 20.4943C19.0672 20.6383 18.823 20.7881 18.5657 20.9069C18.0921 21.1193 17.5956 21.2759 17.0859 21.3754C16.602 21.4618 16.1113 21.5009 15.6188 21.4942H11.2677V21.4879L11.2695 21.4865Z" fill="#FEFEFD"/>
</svg>
