<svg width="24" height="20" viewBox="0 0 24 20" fill="none" xmlns="http://www.w3.org/2000/svg">
<path d="M21.4728 1.93273C20.9255 1.38339 20.2756 0.947613 19.5604 0.650297C18.8451 0.352981 18.0785 0.199951 17.3042 0.199951C16.53 0.199951 15.7634 0.352981 15.0481 0.650297C14.3329 0.947613 13.683 1.38339 13.1357 1.93273L11.9998 3.07228L10.8639 1.93273C9.75828 0.82362 8.25881 0.200526 6.69529 0.200526C5.13177 0.200526 3.6323 0.82362 2.52673 1.93273C1.42115 3.04185 0.800049 4.54613 0.800049 6.11465C0.800049 7.68317 1.42115 9.18746 2.52673 10.2966L3.66263 11.4361L11.504 19.3026C11.7775 19.577 12.222 19.577 12.4955 19.3026L20.3369 11.4361L21.4728 10.2966C22.0204 9.74748 22.4548 9.09554 22.7511 8.378C23.0475 7.66045 23.2001 6.89136 23.2001 6.11465C23.2001 5.33795 23.0475 4.56885 22.7511 3.8513C22.4548 3.13376 22.0204 2.48182 21.4728 1.93273Z" fill="#F03B31"/>
</svg>
